<!-- Generated by IcoMoon.io -->
<svg version="1.1" xmlns="http://www.w3.org/2000/svg" width="32" height="32" viewBox="0 0 32 32">
<title>code</title>
<path fill="#4985ff" d="M12.625 22.425c-0.131-0-0.25-0.048-0.342-0.126l0.001 0.001-3.42-2.911c-0.114-0.097-0.186-0.241-0.186-0.402s0.072-0.305 0.185-0.402l0.001-0.001 3.419-2.911c0.092-0.078 0.211-0.126 0.342-0.126 0.292 0 0.528 0.236 0.528 0.528 0 0.161-0.072 0.305-0.185 0.402l-0.001 0.001-2.946 2.509 2.946 2.509c0.114 0.097 0.186 0.241 0.186 0.402 0 0.292-0.236 0.528-0.528 0.528-0 0-0.001 0-0.001 0h0zM19.374 22.425c-0 0-0 0-0 0-0.292 0-0.528-0.236-0.528-0.528 0-0.161 0.072-0.305 0.185-0.402l0.001-0.001 2.946-2.509-2.946-2.509c-0.114-0.097-0.186-0.241-0.186-0.402 0-0.292 0.236-0.528 0.528-0.528 0.131 0 0.251 0.048 0.343 0.127l-0.001-0.001 3.419 2.911c0.114 0.097 0.186 0.241 0.186 0.402s-0.072 0.305-0.185 0.402l-0.001 0.001-3.419 2.912c-0.091 0.078-0.21 0.125-0.34 0.125-0 0-0.001 0-0.001 0h0zM14.789 24.608c-0 0-0.001 0-0.001 0-0.292 0-0.528-0.236-0.528-0.528 0-0.039 0.004-0.077 0.012-0.113l-0.001 0.003 2.13-10.115c0.052-0.241 0.264-0.419 0.517-0.419 0.292 0 0.529 0.237 0.529 0.529 0 0.039-0.004 0.076-0.012 0.113l0.001-0.004-2.131 10.115c-0.052 0.241-0.263 0.42-0.516 0.42h-0z"></path>
<path fill="#4985ff" d="M28.452 30.119h-24.906c-1.958-0.003-3.544-1.589-3.547-3.546v-21.138c0.002-1.958 1.589-3.545 3.546-3.548h24.907c1.958 0.003 3.544 1.59 3.547 3.547v21.138c-0.003 1.958-1.59 3.544-3.547 3.547h-0zM3.547 2.944c-1.374 0.002-2.488 1.116-2.49 2.49v21.138c0.002 1.374 1.115 2.488 2.489 2.491h24.907c1.374-0.002 2.488-1.116 2.49-2.491v-21.138c-0.002-1.375-1.116-2.489-2.491-2.491h-24.906z"></path>
<path fill="#4985ff" d="M31.472 10.347h-30.944c-0.292 0-0.529-0.237-0.529-0.529s0.237-0.529 0.529-0.529v0h30.944c0.292 0 0.528 0.236 0.528 0.528s-0.236 0.528-0.528 0.528v0zM9.026 7.819c-0.923-0.002-1.67-0.75-1.671-1.672v-0c0.002-0.922 0.749-1.67 1.671-1.671h0c0.922 0.002 1.67 0.749 1.671 1.671v0c-0.001 0.923-0.749 1.671-1.671 1.673h-0zM9.026 5.531c-0.34 0-0.616 0.276-0.616 0.617s0.276 0.617 0.617 0.617c0 0 0 0 0.001 0h-0c0.34-0 0.616-0.276 0.616-0.617s-0.276-0.617-0.617-0.617c-0 0-0 0-0.001 0h0zM3.89 7.802c-0.922-0.002-1.67-0.749-1.671-1.671v-0c0.002-0.922 0.749-1.67 1.671-1.671h0c0.923 0.001 1.671 0.749 1.673 1.671v0c-0.002 0.923-0.75 1.67-1.672 1.671h-0zM3.89 5.515c-0.34 0.001-0.615 0.276-0.615 0.617s0.276 0.617 0.617 0.617c0 0 0.001 0 0.001 0h-0c0.34-0.001 0.615-0.276 0.615-0.617s-0.276-0.617-0.617-0.617c-0 0-0.001 0-0.001 0h0zM14.163 7.834c-0.922-0.002-1.67-0.749-1.671-1.671v-0c0.002-0.922 0.749-1.67 1.671-1.671h0c0.922 0.002 1.67 0.749 1.671 1.671v0c-0.002 0.922-0.749 1.67-1.671 1.671h-0zM14.163 5.547c-0.34 0.001-0.615 0.276-0.615 0.616s0.276 0.616 0.616 0.616c0 0 0.001 0 0.001 0h-0c0.34-0.001 0.615-0.276 0.615-0.616s-0.276-0.616-0.616-0.616c-0 0-0.001 0-0.001 0h0z"></path>
</svg>
